<svg xmlns="http://www.w3.org/2000/svg" width="109" height="30" viewBox="0 0 109 30">
    <g fill="none" fill-rule="evenodd">
        <path fill="#3D3935" d="M18.575.153H0v7.44h11.145v14.88H0v7.44h29.72v-7.44H18.575z"/>
        <path fill="#00A0DF" d="M18.575 7.593H29.72V.153H18.575zM40.436 3.218v4.905h2.765c2.427 0 3.326-1.057 3.326-2.454 0-1.282-.81-2.451-3.19-2.451h-2.9zM36.728 15.82V.065h6.968c5.348 0 6.652 2.927 6.652 5.626 0 2.658-1.708 5.582-6.877 5.582h-3.035v4.547h-3.708zM56.426 3.218V7.47h2.696c1.776 0 2.923-.902 2.923-2.207 0-1.193-.765-2.046-3.058-2.046h-2.561zM52.717 15.82V.065h6.787c5.013 0 6.361 2.522 6.361 5.11 0 2.003-1.079 3.826-3.147 4.614l4.383 6.03h-4.27l-3.865-5.535h-2.54v5.536h-3.709zM69.02 15.82h3.709V.065h-3.71zM76.216.065h3.169l5.349 7.224 5.08-7.224h3.056V15.82h-3.483V8.167c0-.696 0-2.003.045-2.52h-.09c-.36.63-.652 1.126-1.079 1.71l-3.236 4.367h-.832l-3.282-4.367c-.427-.562-.674-.967-1.19-1.777h-.09c.044.45.066 1.687.066 2.611v7.629h-3.483V.065M96.252.065h12.452v3.039H99.96v3.264h8.158v2.924h-8.158v3.49h8.945v3.038H96.252V.065"/>
        <path fill="#3D3935" d="M43.923 25.602h-4.696v4.216h-2.5V19.201h2.5v4.126h4.696v-4.126h2.499v10.617h-2.5v-4.216M53.76 27.725c1.59 0 3.03-1.016 3.03-3.215 0-2.26-1.652-3.216-3.03-3.216-1.485 0-3.045.956-3.045 3.216 0 2.169 1.53 3.215 3.045 3.215zm0-8.706c3.18 0 5.604 2.154 5.604 5.491C59.364 27.77 57 30 53.76 30c-3.227 0-5.62-2.154-5.62-5.49 0-3.23 2.454-5.49 5.62-5.49zM61.082 19.201h2.5v8.343h5.861v2.274h-8.361V19.201M73.16 21.325v6.37h.969c2.575 0 3.71-1.122 3.71-3.322 0-2.033-1.06-3.048-3.71-3.048h-.97zm-2.5-2.124h3.65c4.544 0 6.104 2.26 6.104 5.172 0 3.26-1.878 5.445-6.331 5.445H70.66V19.201zM82.208 29.819h2.5V19.2h-2.5zM94.813 29.818l-4.469-5.476c-.257-.317-.802-1.03-1.014-1.41l-.076-.015c.045.425.076 1.002.076 1.396v5.505h-2.272V19.201h2.06l4.604 5.612c.243.289.682.895.894 1.29h.076c-.03-.38-.076-.957-.076-1.336v-5.566h2.272v10.617h-2.075M103.877 23.842h5.029v4.339C107.891 29.272 106.15 30 104.498 30c-3.605 0-5.892-2.198-5.892-5.49 0-3.034 2.272-5.49 5.635-5.49 1.909 0 3.377.606 4.362 1.864l-1.424 1.533c-.62-.698-1.59-1.123-2.757-1.123-2.06 0-3.241 1.275-3.241 3.216 0 2.123 1.56 3.215 3.332 3.215.894 0 1.712-.227 2.197-.698v-1.213h-2.833v-1.972"/>
    </g>
</svg>
